<?xml version="1.0" encoding="utf-8" standalone="no"?>
<!DOCTYPE svg PUBLIC "-//W3C//DTD SVG 1.1//EN"
  "http://www.w3.org/Graphics/SVG/1.1/DTD/svg11.dtd">
<svg xmlns:xlink="http://www.w3.org/1999/xlink" width="545.383123pt" height="455.478281pt" viewBox="0 0 545.383123 455.478281" xmlns="http://www.w3.org/2000/svg" version="1.1">
 <metadata>
  <rdf:RDF xmlns:dc="http://purl.org/dc/elements/1.1/" xmlns:cc="http://creativecommons.org/ns#" xmlns:rdf="http://www.w3.org/1999/02/22-rdf-syntax-ns#">
   <cc:Work>
    <dc:type rdf:resource="http://purl.org/dc/dcmitype/StillImage"/>
    <dc:date>2026-06-08T16:06:07.716626</dc:date>
    <dc:format>image/svg+xml</dc:format>
    <dc:creator>
     <cc:Agent>
      <dc:title>Matplotlib v3.10.8, https://matplotlib.org/</dc:title>
     </cc:Agent>
    </dc:creator>
   </cc:Work>
  </rdf:RDF>
 </metadata>
 <defs>
  <style type="text/css">*{stroke-linejoin: round; stroke-linecap: butt}</style>
 </defs>
 <g id="figure_1">
  <g id="patch_1">
   <path d="M 0 455.478281 
L 545.383123 455.478281 
L 545.383123 0 
L 0 0 
L 0 455.478281 
z
" style="fill: none"/>
  </g>
  <g id="axes_1">
   <g id="patch_2">
    <path d="M 116.478516 448.278281 
L 490.700116 448.278281 
L 490.700116 21.558281 
L 116.478516 21.558281 
L 116.478516 448.278281 
z
" style="fill: none"/>
   </g>
   <g id="line2d_1">
    <path d="M 116.478516 45.264948 
L 490.700116 45.264948 
" clip-path="url(#p529a20d5b8)" style="fill: none; stroke: #e6e3dd; stroke-width: 0.8; stroke-linecap: square"/>
   </g>
   <g id="line2d_2">
    <path d="M 116.478516 187.504948 
L 490.700116 187.504948 
" clip-path="url(#p529a20d5b8)" style="fill: none; stroke: #e6e3dd; stroke-width: 0.8; stroke-linecap: square"/>
   </g>
   <g id="line2d_3">
    <path d="M 116.478516 282.331615 
L 490.700116 282.331615 
" clip-path="url(#p529a20d5b8)" style="fill: none; stroke: #e6e3dd; stroke-width: 0.8; stroke-linecap: square"/>
   </g>
   <g id="line2d_4">
    <path d="M 116.478516 353.451615 
L 490.700116 353.451615 
" clip-path="url(#p529a20d5b8)" style="fill: none; stroke: #e6e3dd; stroke-width: 0.8; stroke-linecap: square"/>
   </g>
   <g id="line2d_5">
    <path d="M 116.478516 400.864948 
L 490.700116 400.864948 
" clip-path="url(#p529a20d5b8)" style="fill: none; stroke: #e6e3dd; stroke-width: 0.8; stroke-linecap: square"/>
   </g>
   <g id="LineCollection_1">
    <path d="M 116.478516 57.118281 
L 303.589316 57.118281 
" clip-path="url(#p529a20d5b8)" style="fill: none; stroke: #e6e3dd"/>
   </g>
   <g id="LineCollection_2">
    <path d="M 116.478516 80.824948 
L 303.589316 80.824948 
" clip-path="url(#p529a20d5b8)" style="fill: none; stroke: #e6e3dd"/>
   </g>
   <g id="LineCollection_3">
    <path d="M 116.478516 104.531615 
L 303.589316 104.531615 
" clip-path="url(#p529a20d5b8)" style="fill: none; stroke: #e6e3dd"/>
   </g>
   <g id="LineCollection_4">
    <path d="M 116.478516 128.238281 
L 303.589316 128.238281 
" clip-path="url(#p529a20d5b8)" style="fill: none; stroke: #e6e3dd"/>
   </g>
   <g id="LineCollection_5">
    <path d="M 116.478516 151.944948 
L 303.589316 151.944948 
" clip-path="url(#p529a20d5b8)" style="fill: none; stroke: #e6e3dd"/>
   </g>
   <g id="LineCollection_6">
    <path d="M 116.478516 199.358281 
L 303.589316 199.358281 
" clip-path="url(#p529a20d5b8)" style="fill: none; stroke: #e6e3dd"/>
   </g>
   <g id="LineCollection_7">
    <path d="M 116.478516 223.064948 
L 303.589316 223.064948 
" clip-path="url(#p529a20d5b8)" style="fill: none; stroke: #e6e3dd"/>
   </g>
   <g id="LineCollection_8">
    <path d="M 116.478516 246.771615 
L 303.589316 246.771615 
" clip-path="url(#p529a20d5b8)" style="fill: none; stroke: #e6e3dd"/>
   </g>
   <g id="LineCollection_9">
    <path d="M 116.478516 294.184948 
L 303.589316 294.184948 
" clip-path="url(#p529a20d5b8)" style="fill: none; stroke: #e6e3dd"/>
   </g>
   <g id="LineCollection_10">
    <path d="M 116.478516 317.891615 
L 303.589316 317.891615 
" clip-path="url(#p529a20d5b8)" style="fill: none; stroke: #e6e3dd"/>
   </g>
   <g id="LineCollection_11">
    <path d="M 116.478516 365.304948 
L 303.589316 365.304948 
" clip-path="url(#p529a20d5b8)" style="fill: none; stroke: #e6e3dd"/>
   </g>
   <g id="LineCollection_12">
    <path d="M 116.478516 412.718281 
L 303.589316 412.718281 
" clip-path="url(#p529a20d5b8)" style="fill: none; stroke: #e6e3dd"/>
   </g>
   <g id="LineCollection_13">
    <path d="M 116.478516 436.424948 
L 303.589316 436.424948 
" clip-path="url(#p529a20d5b8)" style="fill: none; stroke: #e6e3dd"/>
   </g>
   <g id="matplotlib.axis_1"/>
   <g id="matplotlib.axis_2">
    <g id="ytick_1">
     <g id="line2d_6"/>
     <g id="text_1">
      <text style="font-size: 8.5px; font-family: 'Inter', 'Arial', 'DejaVu Sans', sans-serif; text-anchor: end; fill: #111111" x="112.978516" y="60.347617" transform="rotate(-0 112.978516 60.347617)">construct length</text>
     </g>
    </g>
    <g id="ytick_2">
     <g id="line2d_7"/>
     <g id="text_2">
      <text style="font-size: 8.5px; font-family: 'Inter', 'Arial', 'DejaVu Sans', sans-serif; text-anchor: end; fill: #111111" x="112.978516" y="84.054284" transform="rotate(-0 112.978516 84.054284)">cds length</text>
     </g>
    </g>
    <g id="ytick_3">
     <g id="line2d_8"/>
     <g id="text_3">
      <text style="font-size: 8.5px; font-family: 'Inter', 'Arial', 'DejaVu Sans', sans-serif; text-anchor: end; fill: #111111" x="112.978516" y="107.760951" transform="rotate(-0 112.978516 107.760951)">five prime utr length</text>
     </g>
    </g>
    <g id="ytick_4">
     <g id="line2d_9"/>
     <g id="text_4">
      <text style="font-size: 8.5px; font-family: 'Inter', 'Arial', 'DejaVu Sans', sans-serif; text-anchor: end; fill: #111111" x="112.978516" y="131.467617" transform="rotate(-0 112.978516 131.467617)">three prime utr length</text>
     </g>
    </g>
    <g id="ytick_5">
     <g id="line2d_10"/>
     <g id="text_5">
      <text style="font-size: 8.5px; font-family: 'Inter', 'Arial', 'DejaVu Sans', sans-serif; text-anchor: end; fill: #111111" x="112.978516" y="155.174284" transform="rotate(-0 112.978516 155.174284)">poly a length</text>
     </g>
    </g>
    <g id="ytick_6">
     <g id="line2d_11"/>
     <g id="text_6">
      <text style="font-size: 8.5px; font-family: 'Inter', 'Arial', 'DejaVu Sans', sans-serif; text-anchor: end; fill: #111111" x="112.978516" y="202.587617" transform="rotate(-0 112.978516 202.587617)">encoded peptides</text>
     </g>
    </g>
    <g id="ytick_7">
     <g id="line2d_12"/>
     <g id="text_7">
      <text style="font-size: 8.5px; font-family: 'Inter', 'Arial', 'DejaVu Sans', sans-serif; text-anchor: end; fill: #111111" x="112.978516" y="226.294284" transform="rotate(-0 112.978516 226.294284)">gc fraction</text>
     </g>
    </g>
    <g id="ytick_8">
     <g id="line2d_13"/>
     <g id="text_8">
      <text style="font-size: 8.5px; font-family: 'Inter', 'Arial', 'DejaVu Sans', sans-serif; text-anchor: end; fill: #111111" x="112.978516" y="250.000951" transform="rotate(-0 112.978516 250.000951)">uridine fraction</text>
     </g>
    </g>
    <g id="ytick_9">
     <g id="line2d_14"/>
     <g id="text_9">
      <text style="font-size: 8.5px; font-family: 'Inter', 'Arial', 'DejaVu Sans', sans-serif; text-anchor: end; fill: #111111" x="112.978516" y="297.414284" transform="rotate(-0 112.978516 297.414284)">five prime mfe</text>
     </g>
    </g>
    <g id="ytick_10">
     <g id="line2d_15"/>
     <g id="text_10">
      <text style="font-size: 8.5px; font-family: 'Inter', 'Arial', 'DejaVu Sans', sans-serif; text-anchor: end; fill: #111111" x="112.978516" y="321.120951" transform="rotate(-0 112.978516 321.120951)">three prime mfe</text>
     </g>
    </g>
    <g id="ytick_11">
     <g id="line2d_16"/>
     <g id="text_11">
      <text style="font-size: 8.5px; font-family: 'Inter', 'Arial', 'DejaVu Sans', sans-serif; text-anchor: end; fill: #111111" x="112.978516" y="368.534284" transform="rotate(-0 112.978516 368.534284)">cai</text>
     </g>
    </g>
    <g id="ytick_12">
     <g id="line2d_17"/>
     <g id="text_12">
      <text style="font-size: 8.5px; font-family: 'Inter', 'Arial', 'DejaVu Sans', sans-serif; text-anchor: end; fill: #111111" x="112.978516" y="415.947617" transform="rotate(-0 112.978516 415.947617)">m1psi substitution ready</text>
     </g>
    </g>
    <g id="ytick_13">
     <g id="line2d_18"/>
     <g id="text_13">
      <text style="font-size: 8.5px; font-family: 'Inter', 'Arial', 'DejaVu Sans', sans-serif; text-anchor: end; fill: #111111" x="112.978516" y="439.654284" transform="rotate(-0 112.978516 439.654284)">manufacturing cleared</text>
     </g>
    </g>
   </g>
   <g id="text_14">
    <text style="font-weight: 600; font-size: 8px; font-family: 'Inter', 'Arial', 'DejaVu Sans', sans-serif; text-anchor: start; fill: #6b6b66" x="116.478516" y="47.472448" transform="rotate(-0 116.478516 47.472448)">  LENGTH</text>
   </g>
   <g id="line2d_19">
    <defs>
     <path id="m020b802046" d="M 0 4 
C 1.060812 4 2.078319 3.578535 2.828427 2.828427 
C 3.578535 2.078319 4 1.060812 4 0 
C 4 -1.060812 3.578535 -2.078319 2.828427 -2.828427 
C 2.078319 -3.578535 1.060812 -4 0 -4 
C -1.060812 -4 -2.078319 -3.578535 -2.828427 -2.828427 
C -3.578535 -2.078319 -4 -1.060812 -4 0 
C -4 1.060812 -3.578535 2.078319 -2.828427 2.828427 
C -2.078319 3.578535 -1.060812 4 0 4 
z
" style="stroke: #6b6b66"/>
    </defs>
    <g clip-path="url(#p529a20d5b8)">
     <use xlink:href="#m020b802046" x="303.589316" y="57.118281" style="fill: #6b6b66; stroke: #6b6b66"/>
    </g>
   </g>
   <g id="text_15">
    <text style="font-size: 8.5px; font-family: 'Inter', 'Arial', 'DejaVu Sans', sans-serif; text-anchor: start; fill: #111111" x="311.073748" y="59.46375" transform="rotate(-0 311.073748 59.46375)">3.18e+03 nt</text>
   </g>
   <g id="line2d_20">
    <g clip-path="url(#p529a20d5b8)">
     <use xlink:href="#m020b802046" x="303.589316" y="80.824948" style="fill: #6b6b66; stroke: #6b6b66"/>
    </g>
   </g>
   <g id="text_16">
    <text style="font-size: 8.5px; font-family: 'Inter', 'Arial', 'DejaVu Sans', sans-serif; text-anchor: start; fill: #111111" x="311.073748" y="83.170417" transform="rotate(-0 311.073748 83.170417)">1.79e+03 nt</text>
   </g>
   <g id="line2d_21">
    <defs>
     <path id="me8dda50eee" d="M 0 4 
C 1.060812 4 2.078319 3.578535 2.828427 2.828427 
C 3.578535 2.078319 4 1.060812 4 0 
C 4 -1.060812 3.578535 -2.078319 2.828427 -2.828427 
C 2.078319 -3.578535 1.060812 -4 0 -4 
C -1.060812 -4 -2.078319 -3.578535 -2.828427 -2.828427 
C -3.578535 -2.078319 -4 -1.060812 -4 0 
C -4 1.060812 -3.578535 2.078319 -2.828427 2.828427 
C -2.078319 3.578535 -1.060812 4 0 4 
z
" style="stroke: #2f7d5f"/>
    </defs>
    <g clip-path="url(#p529a20d5b8)">
     <use xlink:href="#me8dda50eee" x="303.589316" y="104.531615" style="fill: #2f7d5f; stroke: #2f7d5f"/>
    </g>
   </g>
   <g id="text_17">
    <text style="font-size: 8.5px; font-family: 'Inter', 'Arial', 'DejaVu Sans', sans-serif; text-anchor: start; fill: #111111" x="311.073748" y="106.877083" transform="rotate(-0 311.073748 106.877083)">66 nt   gate 20-200 nt</text>
   </g>
   <g id="line2d_22">
    <g clip-path="url(#p529a20d5b8)">
     <use xlink:href="#me8dda50eee" x="303.589316" y="128.238281" style="fill: #2f7d5f; stroke: #2f7d5f"/>
    </g>
   </g>
   <g id="text_18">
    <text style="font-size: 8.5px; font-family: 'Inter', 'Arial', 'DejaVu Sans', sans-serif; text-anchor: start; fill: #111111" x="311.073748" y="130.58375" transform="rotate(-0 311.073748 130.58375)">1.2e+03 nt   gate 50-1500 nt</text>
   </g>
   <g id="line2d_23">
    <g clip-path="url(#p529a20d5b8)">
     <use xlink:href="#m020b802046" x="303.589316" y="151.944948" style="fill: #6b6b66; stroke: #6b6b66"/>
    </g>
   </g>
   <g id="text_19">
    <text style="font-size: 8.5px; font-family: 'Inter', 'Arial', 'DejaVu Sans', sans-serif; text-anchor: start; fill: #111111" x="311.073748" y="154.290417" transform="rotate(-0 311.073748 154.290417)">120 nt</text>
   </g>
   <g id="text_20">
    <text style="font-weight: 600; font-size: 8px; font-family: 'Inter', 'Arial', 'DejaVu Sans', sans-serif; text-anchor: start; fill: #6b6b66" x="116.478516" y="189.712448" transform="rotate(-0 116.478516 189.712448)">  COMPOSITION</text>
   </g>
   <g id="line2d_24">
    <g clip-path="url(#p529a20d5b8)">
     <use xlink:href="#m020b802046" x="303.589316" y="199.358281" style="fill: #6b6b66; stroke: #6b6b66"/>
    </g>
   </g>
   <g id="text_21">
    <text style="font-size: 8.5px; font-family: 'Inter', 'Arial', 'DejaVu Sans', sans-serif; text-anchor: start; fill: #111111" x="311.073748" y="201.70375" transform="rotate(-0 311.073748 201.70375)">20 peptides</text>
   </g>
   <g id="line2d_25">
    <g clip-path="url(#p529a20d5b8)">
     <use xlink:href="#me8dda50eee" x="303.589316" y="223.064948" style="fill: #2f7d5f; stroke: #2f7d5f"/>
    </g>
   </g>
   <g id="text_22">
    <text style="font-size: 8.5px; font-family: 'Inter', 'Arial', 'DejaVu Sans', sans-serif; text-anchor: start; fill: #111111" x="311.073748" y="225.410417" transform="rotate(-0 311.073748 225.410417)">0.6 fraction   gate 0.5-0.7</text>
   </g>
   <g id="line2d_26">
    <g clip-path="url(#p529a20d5b8)">
     <use xlink:href="#me8dda50eee" x="303.589316" y="246.771615" style="fill: #2f7d5f; stroke: #2f7d5f"/>
    </g>
   </g>
   <g id="text_23">
    <text style="font-size: 8.5px; font-family: 'Inter', 'Arial', 'DejaVu Sans', sans-serif; text-anchor: start; fill: #111111" x="311.073748" y="249.117083" transform="rotate(-0 311.073748 249.117083)">0.178 fraction   gate &lt;= 0.18 (long CDS)</text>
   </g>
   <g id="text_24">
    <text style="font-weight: 600; font-size: 8px; font-family: 'Inter', 'Arial', 'DejaVu Sans', sans-serif; text-anchor: start; fill: #6b6b66" x="116.478516" y="284.539115" transform="rotate(-0 116.478516 284.539115)">  FOLDING</text>
   </g>
   <g id="line2d_27">
    <g clip-path="url(#p529a20d5b8)">
     <use xlink:href="#me8dda50eee" x="303.589316" y="294.184948" style="fill: #2f7d5f; stroke: #2f7d5f"/>
    </g>
   </g>
   <g id="text_25">
    <text style="font-size: 8.5px; font-family: 'Inter', 'Arial', 'DejaVu Sans', sans-serif; text-anchor: start; fill: #111111" x="311.073748" y="296.530417" transform="rotate(-0 311.073748 296.530417)">-11.6 kcal/mol   gate -15.0 to -5.0 kcal/mol (advisory)</text>
   </g>
   <g id="line2d_28">
    <g clip-path="url(#p529a20d5b8)">
     <use xlink:href="#m020b802046" x="303.589316" y="317.891615" style="fill: #6b6b66; stroke: #6b6b66"/>
    </g>
   </g>
   <g id="text_26">
    <text style="font-size: 8.5px; font-family: 'Inter', 'Arial', 'DejaVu Sans', sans-serif; text-anchor: start; fill: #111111" x="311.073748" y="320.237083" transform="rotate(-0 311.073748 320.237083)">-328 kcal/mol</text>
   </g>
   <g id="text_27">
    <text style="font-weight: 600; font-size: 8px; font-family: 'Inter', 'Arial', 'DejaVu Sans', sans-serif; text-anchor: start; fill: #6b6b66" x="116.478516" y="355.659115" transform="rotate(-0 116.478516 355.659115)">  TRANSLATION</text>
   </g>
   <g id="line2d_29">
    <g clip-path="url(#p529a20d5b8)">
     <use xlink:href="#me8dda50eee" x="303.589316" y="365.304948" style="fill: #2f7d5f; stroke: #2f7d5f"/>
    </g>
   </g>
   <g id="text_28">
    <text style="font-size: 8.5px; font-family: 'Inter', 'Arial', 'DejaVu Sans', sans-serif; text-anchor: start; fill: #111111" x="311.073748" y="367.650417" transform="rotate(-0 311.073748 367.650417)">0.957 fraction   gate &gt;= 0.82 (advisory)</text>
   </g>
   <g id="text_29">
    <text style="font-weight: 600; font-size: 8px; font-family: 'Inter', 'Arial', 'DejaVu Sans', sans-serif; text-anchor: start; fill: #6b6b66" x="116.478516" y="403.072448" transform="rotate(-0 116.478516 403.072448)">  MANUFACTURING</text>
   </g>
   <g id="line2d_30">
    <g clip-path="url(#p529a20d5b8)">
     <use xlink:href="#me8dda50eee" x="303.589316" y="412.718281" style="fill: #2f7d5f; stroke: #2f7d5f"/>
    </g>
   </g>
   <g id="text_30">
    <text style="font-size: 8.5px; font-family: 'Inter', 'Arial', 'DejaVu Sans', sans-serif; text-anchor: start; fill: #111111" x="311.073748" y="415.06375" transform="rotate(-0 311.073748 415.06375)">True   gate true</text>
   </g>
   <g id="line2d_31">
    <g clip-path="url(#p529a20d5b8)">
     <use xlink:href="#me8dda50eee" x="303.589316" y="436.424948" style="fill: #2f7d5f; stroke: #2f7d5f"/>
    </g>
   </g>
   <g id="text_31">
    <text style="font-size: 8.5px; font-family: 'Inter', 'Arial', 'DejaVu Sans', sans-serif; text-anchor: start; fill: #111111" x="311.073748" y="438.770417" transform="rotate(-0 311.073748 438.770417)">True   gate true</text>
   </g>
   <g id="text_32">
    <text style="font-weight: 600; font-size: 11px; font-family: 'Inter', 'Arial', 'DejaVu Sans', sans-serif; text-anchor: start; fill: #111111" x="116.478516" y="15.558281" transform="rotate(-0 116.478516 15.558281)">Final construct metrics against species-profile gates</text>
   </g>
   <g id="legend_1">
    <g id="line2d_32">
     <path d="M 377.593866 413.129531 
L 385.593866 413.129531 
L 393.593866 413.129531 
" style="fill: none; stroke: #000000; stroke-opacity: 0; stroke-width: 1.5; stroke-linecap: square"/>
     <defs>
      <path id="m6e2dd0242a" d="M 0 4 
C 1.060812 4 2.078319 3.578535 2.828427 2.828427 
C 3.578535 2.078319 4 1.060812 4 0 
C 4 -1.060812 3.578535 -2.078319 2.828427 -2.828427 
C 2.078319 -3.578535 1.060812 -4 0 -4 
C -1.060812 -4 -2.078319 -3.578535 -2.828427 -2.828427 
C -3.578535 -2.078319 -4 -1.060812 -4 0 
C -4 1.060812 -3.578535 2.078319 -2.828427 2.828427 
C -2.078319 3.578535 -1.060812 4 0 4 
z
" style="stroke: #000000"/>
     </defs>
     <g>
      <use xlink:href="#m6e2dd0242a" x="385.593866" y="413.129531" style="fill: #2f7d5f; stroke: #000000"/>
     </g>
    </g>
    <g id="text_33">
     <text style="font-size: 8px; font-family: 'Inter', 'Arial', 'DejaVu Sans', sans-serif; text-anchor: start; fill: #111111" x="399.993866" y="415.929531" transform="rotate(-0 399.993866 415.929531)">passes gate</text>
    </g>
    <g id="line2d_33">
     <path d="M 377.593866 424.872031 
L 385.593866 424.872031 
L 393.593866 424.872031 
" style="fill: none; stroke: #000000; stroke-opacity: 0; stroke-width: 1.5; stroke-linecap: square"/>
     <defs>
      <path id="mccbaf922a3" d="M 0 4 
C 1.060812 4 2.078319 3.578535 2.828427 2.828427 
C 3.578535 2.078319 4 1.060812 4 0 
C 4 -1.060812 3.578535 -2.078319 2.828427 -2.828427 
C 2.078319 -3.578535 1.060812 -4 0 -4 
C -1.060812 -4 -2.078319 -3.578535 -2.828427 -2.828427 
C -3.578535 -2.078319 -4 -1.060812 -4 0 
C -4 1.060812 -3.578535 2.078319 -2.828427 2.828427 
C -2.078319 3.578535 -1.060812 4 0 4 
z
" style="stroke: #000000"/>
     </defs>
     <g>
      <use xlink:href="#mccbaf922a3" x="385.593866" y="424.872031" style="fill: #b8382f; stroke: #000000"/>
     </g>
    </g>
    <g id="text_34">
     <text style="font-size: 8px; font-family: 'Inter', 'Arial', 'DejaVu Sans', sans-serif; text-anchor: start; fill: #111111" x="399.993866" y="427.672031" transform="rotate(-0 399.993866 427.672031)">fails gate</text>
    </g>
    <g id="line2d_34">
     <path d="M 377.593866 436.614531 
L 385.593866 436.614531 
L 393.593866 436.614531 
" style="fill: none; stroke: #000000; stroke-opacity: 0; stroke-width: 1.5; stroke-linecap: square"/>
     <defs>
      <path id="mc3ee99275d" d="M 0 4 
C 1.060812 4 2.078319 3.578535 2.828427 2.828427 
C 3.578535 2.078319 4 1.060812 4 0 
C 4 -1.060812 3.578535 -2.078319 2.828427 -2.828427 
C 2.078319 -3.578535 1.060812 -4 0 -4 
C -1.060812 -4 -2.078319 -3.578535 -2.828427 -2.828427 
C -3.578535 -2.078319 -4 -1.060812 -4 0 
C -4 1.060812 -3.578535 2.078319 -2.828427 2.828427 
C -2.078319 3.578535 -1.060812 4 0 4 
z
" style="stroke: #000000"/>
     </defs>
     <g>
      <use xlink:href="#mc3ee99275d" x="385.593866" y="436.614531" style="fill: #6b6b66; stroke: #000000"/>
     </g>
    </g>
    <g id="text_35">
     <text style="font-size: 8px; font-family: 'Inter', 'Arial', 'DejaVu Sans', sans-serif; text-anchor: start; fill: #111111" x="399.993866" y="439.414531" transform="rotate(-0 399.993866 439.414531)">descriptive (no gate)</text>
    </g>
   </g>
  </g>
 </g>
 <defs>
  <clipPath id="p529a20d5b8">
   <rect x="116.478516" y="21.558281" width="374.2216" height="426.72"/>
  </clipPath>
 </defs>
</svg>
